<svg width="14" height="15" viewBox="0 0 14 15" fill="none" xmlns="http://www.w3.org/2000/svg">
<path fill-rule="evenodd" clip-rule="evenodd" d="M14 0H0V14.618L7 11.118L14 14.618V0ZM7.99998 3C7.99998 2.44772 7.55226 2 6.99998 2C6.44769 2 5.99998 2.44772 5.99998 3V4.62362L4.45583 4.12189C3.93058 3.95123 3.36643 4.23868 3.19576 4.76393C3.02509 5.28919 3.31254 5.85334 3.8378 6.024L5.38194 6.52573L4.4276 7.83927C4.10298 8.28607 4.20203 8.91144 4.64884 9.23607C5.09564 9.56069 5.72101 9.46164 6.04564 9.01484L6.99998 7.7013L7.95432 9.01484C8.27894 9.46164 8.90431 9.56069 9.35112 9.23607C9.79793 8.91144 9.89697 8.28607 9.57235 7.83927L8.61801 6.52573L10.1622 6.02401C10.6874 5.85334 10.9749 5.28919 10.8042 4.76393C10.6335 4.23868 10.0694 3.95123 9.54413 4.12189L7.99998 4.62362V3Z" fill="#8B8B8B"/>
</svg>
