<svg width="32" height="32" viewBox="0 0 32 32" fill="none" xmlns="http://www.w3.org/2000/svg">
<path d="M10 17.5C10 18.3284 9.32843 19 8.5 19C7.67157 19 7 18.3284 7 17.5C7 16.6716 7.67157 16 8.5 16C9.32843 16 10 16.6716 10 17.5Z" fill="black"/>
<path d="M13.5 19C14.3284 19 15 18.3284 15 17.5C15 16.6716 14.3284 16 13.5 16C12.6716 16 12 16.6716 12 17.5C12 18.3284 12.6716 19 13.5 19Z" fill="black"/>
<path d="M20 17.5C20 18.3284 19.3284 19 18.5 19C17.6716 19 17 18.3284 17 17.5C17 16.6716 17.6716 16 18.5 16C19.3284 16 20 16.6716 20 17.5Z" fill="black"/>
<path d="M23.5 19C24.3284 19 25 18.3284 25 17.5C25 16.6716 24.3284 16 23.5 16C22.6716 16 22 16.6716 22 17.5C22 18.3284 22.6716 19 23.5 19Z" fill="black"/>
<path d="M10 22.5C10 23.3284 9.32843 24 8.5 24C7.67157 24 7 23.3284 7 22.5C7 21.6716 7.67157 21 8.5 21C9.32843 21 10 21.6716 10 22.5Z" fill="black"/>
<path d="M13.5 24C14.3284 24 15 23.3284 15 22.5C15 21.6716 14.3284 21 13.5 21C12.6716 21 12 21.6716 12 22.5C12 23.3284 12.6716 24 13.5 24Z" fill="black"/>
<path d="M20 22.5C20 23.3284 19.3284 24 18.5 24C17.6716 24 17 23.3284 17 22.5C17 21.6716 17.6716 21 18.5 21C19.3284 21 20 21.6716 20 22.5Z" fill="black"/>
<path d="M23.5 24C24.3284 24 25 23.3284 25 22.5C25 21.6716 24.3284 21 23.5 21C22.6716 21 22 21.6716 22 22.5C22 23.3284 22.6716 24 23.5 24Z" fill="black"/>
<path fill-rule="evenodd" clip-rule="evenodd" d="M10 2.5C10 1.94772 9.55229 1.5 9 1.5C8.44771 1.5 8 1.94772 8 2.5V5H2V29H30V5H24V2.5C24 1.94772 23.5523 1.5 23 1.5C22.4477 1.5 22 1.94772 22 2.5V5H17V2.5C17 1.94772 16.5523 1.5 16 1.5C15.4477 1.5 15 1.94772 15 2.5V5H10V2.5ZM15 8H10V10C10 10.5523 9.55229 11 9 11C8.44771 11 8 10.5523 8 10V8H5V12H27V8H24V10C24 10.5523 23.5523 11 23 11C22.4477 11 22 10.5523 22 10V8H17V10C17 10.5523 16.5523 11 16 11C15.4477 11 15 10.5523 15 10V8ZM5 26V14H27V26H5Z" fill="black"/>
</svg>
