<svg width="28" height="28" viewBox="0 0 28 28" fill="none" xmlns="http://www.w3.org/2000/svg">
<path fill-rule="evenodd" clip-rule="evenodd" d="M22 6C22.5523 6 23 6.44772 23 7V21C23 21.5523 22.5523 22 22 22H5C4.44772 22 4 21.5523 4 21V7C4 6.44772 4.44772 6 5 6H22ZM7 20L10.1679 15.2481C10.5638 14.6543 11.4362 14.6543 11.8321 15.2481L12.1679 15.7519C12.5638 16.3457 13.4362 16.3457 13.8321 15.7519L16.1679 12.2481C16.5638 11.6543 17.4362 11.6543 17.8321 12.2481L21 17V20H7ZM9 12C10.1046 12 11 11.1046 11 10C11 8.89543 10.1046 8 9 8C7.89543 8 7 8.89543 7 10C7 11.1046 7.89543 12 9 12Z" fill="black"/>
</svg>
