<svg width="28" height="28" viewBox="0 0 28 28" fill="none" xmlns="http://www.w3.org/2000/svg">
<path fill-rule="evenodd" clip-rule="evenodd" d="M8.5 8C6.567 8 5 9.567 5 11.5C5 13.433 6.567 15 8.5 15C10.433 15 12 13.433 12 11.5C12 9.567 10.433 8 8.5 8ZM7 11.5C7 10.6716 7.67157 10 8.5 10C9.32843 10 10 10.6716 10 11.5C10 12.3284 9.32843 13 8.5 13C7.67157 13 7 12.3284 7 11.5Z" fill="black"/>
<path fill-rule="evenodd" clip-rule="evenodd" d="M2 6C2 5.44772 2.44772 5 3 5H25C25.5523 5 26 5.44772 26 6V22C26 22.5523 25.5523 23 25 23H3C2.44772 23 2 22.5523 2 22V6ZM4 7V20.3992L7.72414 15.7441L10.7241 17.2441L17 9.39923L24 18.1492V7H4ZM23.7194 21H6.08063L8.27586 18.256L10.5528 19.3944C10.9745 19.6053 11.4863 19.4929 11.7809 19.1247L17 12.6008L23.7194 21Z" fill="black"/>
</svg>
