<svg width="28" height="28" viewBox="0 0 28 28" fill="none" xmlns="http://www.w3.org/2000/svg">
<path fill-rule="evenodd" clip-rule="evenodd" d="M6 12C6 9.95261 6.78105 7.90524 8.34315 6.34315C9.90524 4.78105 11.9526 4 14 4C16.0474 4 18.0948 4.78105 19.6569 6.34315C22.781 9.46734 22.781 14.5327 19.6569 17.6569C17.6595 19.6542 16.498 21.9302 15.5602 24.0475C15.3775 24.46 15.2033 24.8665 15.0331 25.2637C14.9647 25.4232 14.897 25.5811 14.8297 25.7374C14.5035 26.4941 13.4957 26.4945 13.1677 25.7386C13.1013 25.5857 13.0346 25.4312 12.9673 25.2752C12.7943 24.8746 12.6172 24.4643 12.4317 24.048C11.4807 21.9143 10.309 19.6227 8.34315 17.6569C6.78104 16.0948 6 14.0474 6 12ZM14 15C15.6569 15 17 13.6568 17 12C17 10.3431 15.6569 8.99998 14 8.99998C12.3431 8.99998 11 10.3431 11 12C11 13.6568 12.3431 15 14 15Z" fill="black"/>
</svg>
