<svg width="32" height="32" viewBox="0 0 32 32" fill="none" xmlns="http://www.w3.org/2000/svg">
<path d="M19 12C19 13.6568 17.6569 15 16 15C14.3431 15 13 13.6568 13 12C13 10.3431 14.3431 8.99998 16 8.99998C17.6569 8.99998 19 10.3431 19 12Z" stroke="black" stroke-width="2"/>
<path d="M10.3431 6.34315C8.78105 7.90524 8 9.95261 8 12C8 14.0474 8.78104 16.0948 10.3431 17.6569C12.309 19.6227 13.4807 21.6091 14.4317 23.7428C14.6894 24.3211 14.931 24.8878 15.1677 25.4333C15.3318 25.8115 15.6661 26.0004 16 26C16.3335 25.9996 16.6667 25.8103 16.8297 25.4321C17.0648 24.8866 17.3042 24.3203 17.5602 23.7423C18.498 21.6249 19.6595 19.6542 21.6569 17.6569C24.781 14.5327 24.781 9.46734 21.6569 6.34315C20.0948 4.78105 18.0474 4 16 4C13.9526 4 11.9052 4.78105 10.3431 6.34315Z" stroke="black" stroke-width="2"/>
<path fill-rule="evenodd" clip-rule="evenodd" d="M12.4616 24.2407C12.5099 24.3455 12.5576 24.4509 12.6049 24.5569C12.704 24.7793 12.7999 24.9983 12.8947 25.2163C11.1595 25.4792 10 25.9557 10 26.5C10 27.3284 12.6863 28 16 28C19.3137 28 22 27.3284 22 26.5C22 25.9551 20.8378 25.4781 19.0994 25.2154C19.194 24.9962 19.2897 24.776 19.3889 24.5522C19.4353 24.4474 19.4822 24.3432 19.5297 24.2395C22.7458 24.697 25 25.7608 25 27C25 28.6569 20.9706 30 16 30C11.0294 30 7 28.6569 7 27C7 25.7619 9.25013 24.6989 12.4616 24.2407Z" fill="black"/>
</svg>
