<svg width="28" height="28" viewBox="0 0 28 28" fill="none" xmlns="http://www.w3.org/2000/svg">
<path fill-rule="evenodd" clip-rule="evenodd" d="M14 4C12.207 4 10.4173 4.68322 9.05025 6.05025C7.68323 7.41728 7 9.20699 7 11C7 12.793 7.68322 14.5827 9.05025 15.9497C11.1248 18.0243 12.3589 20.123 13.3451 22.3357C13.5331 22.7577 13.7138 23.1762 13.8876 23.5787C13.9248 23.6648 13.9616 23.7501 13.9981 23.8346C14.0356 23.7474 14.0733 23.6592 14.1115 23.5702C14.2826 23.1709 14.4606 22.7557 14.6459 22.3373C15.6202 20.1375 16.8447 18.0548 18.9497 15.9497C21.6834 13.2161 21.6834 8.78392 18.9497 6.05025C17.5827 4.68322 15.793 4 14 4ZM7.63604 4.63604C9.3932 2.87888 11.6982 2 14 2C16.3018 2 18.6068 2.87888 20.364 4.63604C23.8787 8.15076 23.8787 13.8492 20.364 17.364C18.4743 19.2536 17.3758 21.1123 16.4745 23.1472C16.2944 23.5539 16.124 23.9516 15.9547 24.3467C15.8858 24.5074 15.8171 24.6677 15.748 24.828C15.4238 25.5802 14.7249 25.9991 14.0013 26C13.277 26.0009 12.5766 25.5833 12.2503 24.8314C12.1824 24.675 12.1148 24.5183 12.0469 24.3611C11.8748 23.9624 11.7013 23.5604 11.5183 23.1498C10.6025 21.0952 9.49318 19.2211 7.63604 17.364C5.87887 15.6068 4.99999 13.3017 5 11C5.00001 8.69823 5.87888 6.3932 7.63604 4.63604ZM14 8.99998C12.8954 8.99998 12 9.89541 12 11C12 12.1046 12.8954 13 14 13C15.1046 13 16 12.1046 16 11C16 9.89541 15.1046 8.99998 14 8.99998ZM10 11C10 8.79084 11.7909 6.99998 14 6.99998C16.2091 6.99998 18 8.79084 18 11C18 13.2091 16.2091 15 14 15C11.7909 15 10 13.2091 10 11Z" fill="black"/>
</svg>
