<svg width="32" height="32" viewBox="0 0 32 32" fill="none" xmlns="http://www.w3.org/2000/svg">
<path d="M8 8H10V24H8V8Z" fill="black"/>
<path d="M18 19H20V24H18V19Z" fill="black"/>
<path d="M18 8H20V13H18V8Z" fill="black"/>
<path d="M10 10C8.89543 10 8 9.10457 8 8C8 6.89543 8.89543 6 10 6C11.1046 6 12 6.89543 12 8H10V10Z" fill="black"/>
<path d="M16 8C16 6.89543 16.8954 6 18 6C19.1046 6 20 6.89543 20 8C20 9.10457 19.1046 10 18 10V8L16 8Z" fill="black"/>
<path d="M18 22C19.1046 22 20 22.8954 20 24C20 25.1046 19.1046 26 18 26C16.8954 26 16 25.1046 16 24H18V22Z" fill="black"/>
<path d="M12 24C12 25.1046 11.1046 26 10 26C8.89543 26 8 25.1046 8 24C8 22.8954 8.89543 22 10 22L10 24H12Z" fill="black"/>
<path d="M10 24H18V26H10V24Z" fill="black"/>
<path d="M10 6L18 6V8H10V6Z" fill="black"/>
<path d="M14 17V15H23.5858V15C22.5704 13.9846 22 12.6075 22 11.1715V10.5858L27.4142 16L22 21.4142V20.8285C22 19.3925 22.5704 18.0154 23.5858 17V17H14Z" fill="black"/>
</svg>
