<svg width="56" height="48" viewBox="0 0 56 48" fill="none" xmlns="http://www.w3.org/2000/svg">
<path fill-rule="evenodd" clip-rule="evenodd" d="M20.5321 1.13406C12.9566 -2.00382 4.27194 1.59348 1.13406 9.16898C-2.00381 16.7445 1.59338 25.429 9.16889 28.5669C16.7444 31.7048 16.7444 36.7921 9.16889 39.93C7.14231 40.7694 4.7789 41.3843 2.25889 41.7746L14.3632 46.7884C16.1821 47.5418 18.2258 47.5418 20.0447 46.7884L56 31.8952L35.4253 23.3728C31.6376 21.8039 30.0572 17.3366 29.6147 13.2607C29.048 8.04148 25.7245 3.28482 20.5321 1.13406ZM17.7849 8.03182C16.0087 7.26759 13.9374 7.19385 12.0098 7.99229C10.1162 8.77666 8.71967 10.2542 7.99258 12.0091C7.26531 13.7644 7.20776 15.7972 7.99232 17.6913C8.79076 19.6189 10.3075 21.0314 12.1039 21.747C13.8374 22.4376 15.8312 22.4793 17.6913 21.7088C19.5854 20.9242 20.9821 19.4461 21.7091 17.6907C22.4358 15.9356 22.4932 13.9034 21.7088 12.0098C20.9383 10.1497 19.499 8.76927 17.7849 8.03182Z" fill="black"/>
</svg>
