<svg width="28" height="28" viewBox="0 0 28 28" fill="none" xmlns="http://www.w3.org/2000/svg">
<path d="M24.0625 13.1953C23.9694 15.362 23.432 17.0843 22.4502 18.3623C21.4769 19.6318 20.1651 20.2666 18.5147 20.2666C17.7868 20.2666 17.1563 20.11 16.6231 19.7969C16.0984 19.4837 15.7006 19.0352 15.4297 18.4512C14.5834 19.6361 13.4789 20.2285 12.1163 20.2285C10.8806 20.2285 9.9242 19.708 9.24712 18.667C8.57004 17.626 8.31613 16.2507 8.4854 14.541C8.63774 13.1445 8.98898 11.9046 9.53911 10.8213C10.0977 9.72949 10.8002 8.8916 11.6465 8.30762C12.4929 7.72363 13.4069 7.43164 14.3887 7.43164C15.599 7.43164 16.6316 7.71094 17.4864 8.26953L18.2862 8.81543L17.6387 16.1533C17.5541 16.8219 17.626 17.334 17.8545 17.6895C18.0915 18.0449 18.4639 18.2227 18.9717 18.2227C19.7504 18.2227 20.4021 17.7699 20.9268 16.8643C21.4515 15.9502 21.7393 14.7568 21.7901 13.2842C21.934 10.3304 21.3373 8.06217 20 6.47949C18.6713 4.88835 16.6993 4.09277 14.084 4.09277C12.4506 4.09277 10.9948 4.50749 9.71685 5.33691C8.43885 6.16634 7.43169 7.34701 6.69536 8.87891C5.95903 10.4023 5.54432 12.1501 5.45122 14.1221C5.3158 17.1182 5.91672 19.4329 7.25395 21.0664C8.59119 22.7083 10.5928 23.5293 13.2588 23.5293C13.9613 23.5293 14.6976 23.4489 15.4678 23.2881C16.238 23.1357 16.9024 22.9284 17.461 22.666L17.9434 24.6211C17.4271 24.9596 16.7289 25.2305 15.8487 25.4336C14.9769 25.6452 14.0967 25.751 13.2081 25.751C10.9737 25.751 9.06938 25.2982 7.49517 24.3926C5.92095 23.4954 4.74451 22.1667 3.96587 20.4062C3.19569 18.6543 2.86138 16.5596 2.96294 14.1221C3.0645 11.7861 3.5977 9.69141 4.56255 7.83789C5.52739 5.98438 6.83924 4.55404 8.4981 3.54688C10.1654 2.53125 12.0443 2.02344 14.1348 2.02344C16.2592 2.02344 18.0873 2.48047 19.6192 3.39453C21.1511 4.30013 22.2979 5.59928 23.0596 7.29199C23.8213 8.9847 24.1556 10.9525 24.0625 13.1953ZM11.3038 14.541C11.2107 15.6582 11.308 16.5088 11.5958 17.0928C11.8835 17.6683 12.349 17.9561 12.9922 17.9561C13.4069 17.9561 13.8005 17.7741 14.1729 17.4102C14.5453 17.0462 14.8542 16.5215 15.0997 15.8359L15.6329 9.83105C15.3028 9.72103 14.9642 9.66602 14.6172 9.66602C13.6439 9.66602 12.8864 10.0807 12.3448 10.9102C11.8116 11.7396 11.4646 12.9499 11.3038 14.541Z" fill="black"/>
</svg>
