<svg width="34" height="34" viewBox="0 0 34 34" fill="none" xmlns="http://www.w3.org/2000/svg">
<path d="M2 16H32V18H2V16Z" fill="white"/>
<path fill-rule="evenodd" clip-rule="evenodd" d="M17 0C7.61116 0 0 7.61116 0 17C0 26.3888 7.61116 34 17 34C26.3888 34 34 26.3888 34 17C34 7.61116 26.3888 0 17 0ZM2 17C2 8.71573 8.71573 2 17 2C25.2843 2 32 8.71573 32 17C32 25.2843 25.2843 32 17 32C8.71573 32 2 25.2843 2 17Z" fill="white"/>
<path fill-rule="evenodd" clip-rule="evenodd" d="M12.9664 6.08711C11.7669 8.82877 11 12.6863 11 17C11 21.3137 11.7669 25.1712 12.9664 27.9129C13.5668 29.2852 14.2559 30.333 14.9703 31.0237C15.68 31.7098 16.3644 32 17 32C17.6356 32 18.32 31.7098 19.0297 31.0237C19.7441 30.333 20.4332 29.2852 21.0336 27.9129C22.2331 25.1712 23 21.3137 23 17C23 12.6863 22.2331 8.82877 21.0336 6.08711C20.4332 4.7148 19.7441 3.66703 19.0297 2.97631C18.32 2.29024 17.6356 2 17 2C16.3644 2 15.68 2.29024 14.9703 2.97631C14.2559 3.66703 13.5668 4.7148 12.9664 6.08711ZM13.5802 1.53841C14.5455 0.60519 15.7026 0 17 0C18.2974 0 19.4545 0.60519 20.4198 1.53841C21.3803 2.46698 22.1995 3.76236 22.8659 5.28547C24.1999 8.33467 25 12.4772 25 17C25 21.5228 24.1999 25.6653 22.8659 28.7145C22.1995 30.2376 21.3803 31.533 20.4198 32.4616C19.4545 33.3948 18.2974 34 17 34C15.7026 34 14.5455 33.3948 13.5802 32.4616C12.6197 31.533 11.8005 30.2376 11.1341 28.7145C9.80007 25.6653 9 21.5228 9 17C9 12.4772 9.80007 8.33467 11.1341 5.28547C11.8005 3.76236 12.6197 2.46698 13.5802 1.53841Z" fill="white"/>
</svg>
