<svg width="28" height="28" viewBox="0 0 28 28" fill="none" xmlns="http://www.w3.org/2000/svg">
<path d="M26 28L26 1.19209e-07L28 0L28 28H26Z" fill="white"/>
<path d="M20 28V8.74229e-08L22 0L22 28H20Z" fill="white"/>
<path d="M2.70245e-07 28L1.82822e-07 26L20 26V28L2.70245e-07 28Z" fill="white"/>
<path d="M-8.66252e-07 2L-9.53674e-07 1.3113e-06L20 8.74229e-08V2L-8.66252e-07 2Z" fill="white"/>
<path d="M-2.06593e-07 6L16 6V8H-2.06593e-07V6Z" fill="white"/>
<path d="M-2.06593e-07 20L16 20V22L-2.06593e-07 22V20Z" fill="white"/>
<path d="M-2.06593e-07 13H16V15H-2.06593e-07V13Z" fill="white"/>
</svg>
