<svg width="32" height="32" viewBox="0 0 32 32" fill="none" xmlns="http://www.w3.org/2000/svg">
<path d="M17 8L17 24L15 24L15 8L17 8Z" fill="white"/>
<path d="M24 17L8 17L8 15L24 15L24 17Z" fill="white"/>
<path fill-rule="evenodd" clip-rule="evenodd" d="M28 16C28 9.37258 22.6274 4 16 4C9.37258 4 4 9.37258 4 16C4 22.6274 9.37258 28 16 28C22.6274 28 28 22.6274 28 16ZM2 8C2 4.68629 4.68629 2 8 2H24C27.3137 2 30 4.68629 30 8V24C30 27.3137 27.3137 30 24 30H8C4.68629 30 2 27.3137 2 24V8Z" fill="white" fill-opacity="0.5"/>
</svg>
