<svg width="32" height="32" viewBox="0 0 32 32" fill="none" xmlns="http://www.w3.org/2000/svg">
<path d="M17 9L17 23L15 23L15 9L17 9Z" fill="white"/>
<path d="M23 17L9 17L9 15L23 15L23 17Z" fill="white"/>
<path fill-rule="evenodd" clip-rule="evenodd" d="M8 4C5.79086 4 4 5.79086 4 8V24C4 26.2091 5.79086 28 8 28H24C26.2091 28 28 26.2091 28 24V8C28 5.79086 26.2091 4 24 4H8ZM13 13L13 9C13 7.89543 13.8954 7 15 7H17C18.1046 7 19 7.89543 19 9V13H23C24.1046 13 25 13.8954 25 15V17C25 18.1046 24.1046 19 23 19H19V23C19 24.1046 18.1046 25 17 25H15C13.8954 25 13 24.1046 13 23L13 19L9 19C7.89543 19 7 18.1046 7 17V15C7 13.8954 7.89543 13 9 13L13 13Z" fill="white" fill-opacity="0.66666"/>
<rect x="3" y="3" width="26" height="26" rx="5" stroke="white" stroke-width="2"/>
</svg>
