<svg width="32" height="32" viewBox="0 0 32 32" fill="none" xmlns="http://www.w3.org/2000/svg">
<path d="M17 9L17 23L15 23L15 9L17 9Z" fill="black"/>
<path d="M23 17L9 17L9 15L23 15L23 17Z" fill="black"/>
<path fill-rule="evenodd" clip-rule="evenodd" d="M3 7C3 4.79086 4.79086 3 7 3H25C27.2091 3 29 4.79086 29 7V25C29 27.2091 27.2091 29 25 29H7C4.79086 29 3 27.2091 3 25V7ZM19 13V9C19 7.89543 18.1046 7 17 7L15 7C13.8954 7 13 7.89543 13 9V13L9 13C7.89543 13 7 13.8954 7 15L7 17C7 18.1046 7.89543 19 9 19L13 19V23C13 24.1046 13.8954 25 15 25H17C18.1046 25 19 24.1046 19 23V19H23C24.1046 19 25 18.1046 25 17V15C25 13.8954 24.1046 13 23 13H19Z" fill="black" fill-opacity="0.5"/>
<path fill-rule="evenodd" clip-rule="evenodd" d="M24 4H8C5.79086 4 4 5.79086 4 8V24C4 26.2091 5.79086 28 8 28H24C26.2091 28 28 26.2091 28 24V8C28 5.79086 26.2091 4 24 4ZM8 2C4.68629 2 2 4.68629 2 8V24C2 27.3137 4.68629 30 8 30H24C27.3137 30 30 27.3137 30 24V8C30 4.68629 27.3137 2 24 2H8Z" fill="black"/>
</svg>
