<svg width="28" height="28" viewBox="0 0 28 28" fill="none" xmlns="http://www.w3.org/2000/svg">
<path fill-rule="evenodd" clip-rule="evenodd" d="M14.2747 3.03849C14.8058 3.19021 15.1132 3.7437 14.9615 4.27473L13.3257 10H17.2457L19.0385 3.72529C19.1902 3.19426 19.7437 2.88677 20.2747 3.03849C20.8058 3.19021 21.1132 3.7437 20.9615 4.27473L19.3257 10H24C24.5523 10 25 10.4477 25 11C25 11.5523 24.5523 12 24 12H18.7543L17.3257 17H22C22.5523 17 23 17.4477 23 18C23 18.5523 22.5523 19 22 19H16.7543L14.9615 25.2747C14.8098 25.8058 14.2563 26.1133 13.7253 25.9615C13.1942 25.8098 12.8868 25.2563 13.0385 24.7253L14.6743 19H10.7543L8.96152 25.2747C8.8098 25.8058 8.25631 26.1133 7.72528 25.9615C7.19424 25.8098 6.88675 25.2563 7.03848 24.7253L8.67427 19H4C3.44772 19 3 18.5523 3 18C3 17.4477 3.44772 17 4 17H9.2457L10.6743 12H6C5.44772 12 5 11.5523 5 11C5 10.4477 5.44772 10 6 10H11.2457L13.0385 3.72529C13.1902 3.19426 13.7437 2.88677 14.2747 3.03849ZM12.7543 12L11.3257 17H15.2457L16.6743 12H12.7543Z" fill="black"/>
</svg>
