<svg width="28" height="28" viewBox="0 0 28 28" fill="none" xmlns="http://www.w3.org/2000/svg">
<path d="M15 15V13H13V15H15Z" fill="black"/>
<path fill-rule="evenodd" clip-rule="evenodd" d="M24 14C24 19.5228 19.5228 24 14 24C8.47715 24 4 19.5228 4 14C4 8.47715 8.47715 4 14 4C19.5228 4 24 8.47715 24 14ZM13 9C13 8.44772 12.5523 8 12 8C11.4477 8 11 8.44771 11 9V11H9C8.44772 11 8 11.4477 8 12C8 12.5523 8.44772 13 9 13H11V15H9C8.44772 15 8 15.4477 8 16C8 16.5523 8.44772 17 9 17H11V19C11 19.5523 11.4477 20 12 20C12.5523 20 13 19.5523 13 19V17H15V19C15 19.5523 15.4477 20 16 20C16.5523 20 17 19.5523 17 19V17H19C19.5523 17 20 16.5523 20 16C20 15.4477 19.5523 15 19 15H17V13H19C19.5523 13 20 12.5523 20 12C20 11.4477 19.5523 11 19 11H17V9C17 8.44772 16.5523 8 16 8C15.4477 8 15 8.44772 15 9V11H13V9Z" fill="black"/>
</svg>
