<svg width="28" height="28" viewBox="0 0 28 28" fill="none" xmlns="http://www.w3.org/2000/svg">
<path fill-rule="evenodd" clip-rule="evenodd" d="M26 14C26 20.6274 20.6274 26 14 26C7.37258 26 2 20.6274 2 14C2 7.37258 7.37258 2 14 2C20.6274 2 26 7.37258 26 14ZM24 14C24 19.5228 19.5228 24 14 24C8.47715 24 4 19.5228 4 14C4 8.47715 8.47715 4 14 4C19.5228 4 24 8.47715 24 14Z" fill="black"/>
<path d="M12.3496 14.5337L8.36328 13.4038L9.1123 11.1059L13.0605 12.6928L12.8066 8.26218H14.0508H15.2949L15.041 12.7817L18.8877 11.2202L19.6367 13.5434L15.5742 14.6733L18.2402 18.0503L16.2217 19.4848L13.9111 15.7778L11.626 19.3579L9.60742 17.9868L12.3496 14.5337Z" fill="black"/>
</svg>
