<svg width="20" height="20" viewBox="0 0 20 20" fill="none" xmlns="http://www.w3.org/2000/svg">
<rect x="9" y="4" width="2" height="12" fill="white"/>
<rect x="16" y="9" width="2" height="12" transform="rotate(90 16 9)" fill="white"/>
<rect y="6" width="2" height="8" fill="white"/>
<rect x="20" y="14" width="2" height="8" transform="rotate(-180 20 14)" fill="white"/>
<rect x="14" width="2" height="8" transform="rotate(90 14 0)" fill="white"/>
<rect x="6" y="20" width="2" height="8" transform="rotate(-90 6 20)" fill="white"/>
<path d="M0 14H2V16H0V14Z" fill="white"/>
<path d="M4 18H6V20H4V18Z" fill="white"/>
<path d="M4 18C2.89543 18 2 17.1046 2 16H0C0 18.2091 1.79086 20 4 20V18Z" fill="white"/>
<path d="M14 20L14 18L16 18L16 20L14 20Z" fill="white"/>
<path d="M18 16L18 14L20 14L20 16L18 16Z" fill="white"/>
<path d="M18 16C18 17.1046 17.1046 18 16 18L16 20C18.2091 20 20 18.2091 20 16L18 16Z" fill="white"/>
<path d="M20 6L18 6L18 4L20 4L20 6Z" fill="white"/>
<path d="M16 2L14 2L14 5.24537e-07L16 3.49691e-07L16 2Z" fill="white"/>
<path d="M16 2C17.1046 2 18 2.89542 18 4L20 4C20 1.79086 18.2091 1.56562e-07 16 3.49691e-07L16 2Z" fill="white"/>
<path d="M6 0L6 2L4 2L4 -8.74228e-08L6 0Z" fill="white"/>
<path d="M2 4L2 6L-2.62268e-07 6L-1.74846e-07 4L2 4Z" fill="white"/>
<path d="M2 4C2 2.89543 2.89542 2 4 2L4 -8.74228e-08C1.79086 -1.83987e-07 -7.82811e-08 1.79086 -1.74846e-07 4L2 4Z" fill="white"/>
</svg>
