<svg width="32" height="32" viewBox="0 0 32 32" fill="none" xmlns="http://www.w3.org/2000/svg">
<path fill-rule="evenodd" clip-rule="evenodd" d="M6 23C6 21.8954 6.89543 21 8 21H24C25.1046 21 26 21.8954 26 23V28H24V23H8V28H6V23Z" fill="black"/>
<path fill-rule="evenodd" clip-rule="evenodd" d="M16 6C13.7909 6 12 7.79086 12 10V13C12 15.2091 13.7909 17 16 17C18.2091 17 20 15.2091 20 13V10C20 7.79086 18.2091 6 16 6ZM10 10C10 6.68629 12.6863 4 16 4C19.3137 4 22 6.68629 22 10V13C22 16.3137 19.3137 19 16 19C12.6863 19 10 16.3137 10 13V10Z" fill="black"/>
</svg>
