<svg width="32" height="32" viewBox="0 0 32 32" fill="none" xmlns="http://www.w3.org/2000/svg">
<path fill-rule="evenodd" clip-rule="evenodd" d="M18.8284 18.8284C18.1046 19.5523 17.1046 20 16 20C14.8954 20 13.8954 19.5523 13.1716 18.8284C12.4477 18.1046 12 17.1046 12 16C12 14.8954 12.4477 13.8954 13.1716 13.1716C13.8954 12.4477 14.8954 12 16 12C17.1046 12 18.1046 12.4477 18.8284 13.1716C19.5523 13.8954 20 14.8954 20 16C20 17.1046 19.5523 18.1046 18.8284 18.8284ZM17.4142 17.4142C17.0523 17.7761 16.5523 18 16 18C15.4477 18 14.9477 17.7761 14.5858 17.4142C14.2239 17.0523 14 16.5523 14 16C14 15.4477 14.2239 14.9477 14.5858 14.5858C14.9477 14.2239 15.4477 14 16 14C16.5523 14 17.0523 14.2239 17.4142 14.5858C17.7762 14.9477 18 15.4477 18 16C18 16.5523 17.7762 17.0523 17.4142 17.4142Z" fill="black"/>
<path fill-rule="evenodd" clip-rule="evenodd" d="M17.4153 6.09938C18.1941 6.20972 18.9441 6.40978 19.6544 6.68876C19.7707 6.73444 19.8859 6.78223 20 6.83209C20.714 7.14405 21.3846 7.53698 22 7.99927V10H24.0007C24.463 10.6155 24.856 11.286 25.1679 12C25.2178 12.1141 25.2656 12.2293 25.3112 12.3456C25.5902 13.0559 25.7903 13.8059 25.9006 14.5847L24.4853 16L25.9006 17.4153C25.7903 18.1941 25.5902 18.9441 25.3113 19.6544C25.2656 19.7707 25.2178 19.8859 25.1679 20C24.856 20.714 24.463 21.3845 24.0007 22L22 22V24.0007C21.3845 24.463 20.714 24.856 20 25.1679C19.8859 25.2178 19.7707 25.2656 19.6544 25.3112C18.9441 25.5902 18.1941 25.7903 17.4153 25.9006L16 24.4853L14.5847 25.9006C13.8059 25.7903 13.0559 25.5902 12.3456 25.3112C12.2293 25.2656 12.1141 25.2178 12 25.1679C11.286 24.856 10.6155 24.463 10 24.0007L10 22H7.99928C7.53699 21.3845 7.14406 20.714 6.8321 20C6.78224 19.8859 6.73445 19.7707 6.68877 19.6544C6.40979 18.9441 6.20973 18.1941 6.0994 17.4153L7.51472 16L6.0994 14.5847C6.20973 13.8059 6.40979 13.0559 6.68877 12.3456C6.73445 12.2293 6.78224 12.1141 6.8321 12C7.14406 11.286 7.53699 10.6155 7.99928 10H10L10 7.99927C10.6155 7.53698 11.286 7.14405 12 6.83209C12.1141 6.78223 12.2294 6.73444 12.3456 6.68876C13.0559 6.40978 13.8059 6.20972 14.5847 6.09938L16 7.51471L17.4153 6.09938ZM9.07027 20H11.5147L11.7574 20.2426L12 20.4853L12 22.9297C12.598 23.2757 13.2449 23.5464 13.9278 23.729L15.666 21.9909C15.7766 21.9969 15.8879 22 16 22C16.1121 22 16.2234 21.9969 16.334 21.9909L18.0722 23.729C18.7551 23.5464 19.402 23.2757 20 22.9297L20 20.4853L20.2426 20.2426L20.4853 20L22.9298 20C23.2757 19.402 23.5464 18.7551 23.729 18.0722L21.9909 16.334C21.9969 16.2234 22 16.1121 22 16C22 15.8879 21.9969 15.7766 21.9909 15.666L23.729 13.9278C23.5464 13.2449 23.2757 12.598 22.9298 12L20.4853 12L20.2426 11.7574L20 11.5147L20 9.07026C19.402 8.72434 18.7551 8.4536 18.0722 8.27097L16.334 10.0091C16.2234 10.0031 16.1121 10 16 10C15.8879 10 15.7766 10.0031 15.666 10.0091L13.9278 8.27097C13.2449 8.4536 12.598 8.72434 12 9.07026L12 11.5147L11.7574 11.7574L11.5147 12L9.07027 12C8.72435 12.598 8.45362 13.2449 8.27098 13.9278L10.0092 15.666C10.0031 15.7766 10 15.8879 10 16C10 16.1121 10.0031 16.2234 10.0092 16.334L8.27098 18.0722C8.45361 18.7551 8.72435 19.402 9.07027 20Z" fill="black"/>
</svg>
