<svg width="32" height="32" viewBox="0 0 32 32" fill="none" xmlns="http://www.w3.org/2000/svg">
<path fill-rule="evenodd" clip-rule="evenodd" d="M16 18C16.5523 18 17.0523 17.7761 17.4142 17.4142C17.7761 17.0523 18 16.5523 18 16C18 15.4477 17.7761 14.9477 17.4142 14.5858C17.0523 14.2239 16.5523 14 16 14C15.4477 14 14.9477 14.2239 14.5858 14.5858C14.2239 14.9477 14 15.4477 14 16C14 16.5523 14.2239 17.0523 14.5858 17.4142C14.9477 17.7761 15.4477 18 16 18ZM16 20C17.1046 20 18.1046 19.5523 18.8284 18.8284C19.5523 18.1046 20 17.1046 20 16C20 14.8954 19.5523 13.8954 18.8284 13.1716C18.1046 12.4477 17.1046 12 16 12C14.8954 12 13.8954 12.4477 13.1716 13.1716C12.4477 13.8954 12 14.8954 12 16C12 17.1046 12.4477 18.1046 13.1716 18.8284C13.8954 19.5523 14.8954 20 16 20Z" fill="black"/>
<path d="M6.68876 19.6544C6.73444 19.7707 6.78223 19.8859 6.83209 20L9.07026 20C8.72434 19.402 8.4536 18.7551 8.27097 18.0722L6.68876 19.6544Z" fill="black"/>
<path d="M6.83209 20C7.14405 20.714 7.53698 21.3845 7.99927 22H10L10.3431 21.6569C9.85034 21.1641 9.42153 20.6073 9.07026 20L6.83209 20Z" fill="black"/>
<path d="M10.3431 21.6569L11.7574 20.2426L11.5147 20L9.07026 20C9.42153 20.6073 9.85034 21.1641 10.3431 21.6569Z" fill="black"/>
<path d="M10.3431 21.6569L10 22H10.7084C10.5831 21.8894 10.4613 21.775 10.3431 21.6569Z" fill="black"/>
<path d="M6.83209 12C6.78223 12.1141 6.73444 12.2293 6.68876 12.3456L8.27097 13.9278C8.4536 13.2449 8.72434 12.598 9.07026 12L6.83209 12Z" fill="black"/>
<path d="M7.99927 10C7.53698 10.6155 7.14405 11.286 6.83209 12L9.07026 12C9.42154 11.3927 9.85034 10.8359 10.3431 10.3431L10 10H7.99927Z" fill="black"/>
<path d="M11.7574 11.7574L10.3431 10.3431C9.85034 10.8359 9.42154 11.3927 9.07026 12L11.5147 12L11.7574 11.7574Z" fill="black"/>
<path d="M8.92892 17.4142L10.0091 16.334C10.0031 16.2234 10 16.1121 10 16C10 15.8879 10.0031 15.7766 10.0091 15.666L8.92893 14.5858L8.01541 15.4993C8.00519 15.6649 8 15.8318 8 16C8 16.1682 8.00519 16.3351 8.01541 16.5007L8.92892 17.4142Z" fill="black"/>
<path d="M8.27097 18.0722L8.92892 17.4142L8.01541 16.5007C8.04877 17.0408 8.1357 17.5663 8.27097 18.0722Z" fill="black"/>
<path d="M7.51471 16L6.09938 17.4153C6.20972 18.1941 6.40978 18.9441 6.68876 19.6544L8.27097 18.0722C8.1357 17.5663 8.04877 17.0408 8.01541 16.5007L7.51471 16Z" fill="black"/>
<path d="M7.51471 16L8.01541 16.5007C8.00519 16.3351 8 16.1682 8 16C8 15.8318 8.00519 15.6649 8.01541 15.4993L7.51471 16Z" fill="black"/>
<path d="M6.68876 12.3456C6.40978 13.0559 6.20972 13.8059 6.09938 14.5847L7.51471 16L8.01541 15.4993C8.04877 14.9592 8.1357 14.4337 8.27097 13.9278L6.68876 12.3456Z" fill="black"/>
<path d="M8.92893 14.5858L8.27097 13.9278C8.1357 14.4337 8.04877 14.9592 8.01541 15.4993L8.92893 14.5858Z" fill="black"/>
<path d="M12.3456 6.68876C12.2293 6.73444 12.1141 6.78223 12 6.83209L12 9.07026C12.598 8.72434 13.2449 8.4536 13.9278 8.27097L12.3456 6.68876Z" fill="black"/>
<path d="M12 6.83209C11.286 7.14405 10.6155 7.53698 10 7.99927L10 9.99999L10.3431 10.3431C10.8359 9.85034 11.3927 9.42153 12 9.07026L12 6.83209Z" fill="black"/>
<path d="M10.3431 10.3431L11.7574 11.7574L12 11.5147L12 9.07026C11.3927 9.42153 10.8359 9.85034 10.3431 10.3431Z" fill="black"/>
<path d="M10.3431 10.3431L10 9.99999L10 10.7084C10.1106 10.5831 10.225 10.4613 10.3431 10.3431Z" fill="black"/>
<path d="M20 6.83209C19.8859 6.78223 19.7707 6.73444 19.6544 6.68876L18.0722 8.27097C18.7551 8.4536 19.402 8.72434 20 9.07026L20 6.83209Z" fill="black"/>
<path d="M22 7.99927C21.3845 7.53698 20.714 7.14405 20 6.83209L20 9.07026C20.6073 9.42154 21.1641 9.85035 21.6569 10.3431L22 10L22 7.99927Z" fill="black"/>
<path d="M20.2426 11.7574L21.6569 10.3431C21.1641 9.85035 20.6073 9.42154 20 9.07026L20 11.5147L20.2426 11.7574Z" fill="black"/>
<path d="M14.5858 8.92892L15.666 10.0091C15.7766 10.0031 15.8879 10 16 10C16.1121 10 16.2234 10.0031 16.334 10.0091L17.4142 8.92893L16.5007 8.01541C16.3351 8.00519 16.1682 8 16 8C15.8318 8 15.6649 8.00519 15.4993 8.01541L14.5858 8.92892Z" fill="black"/>
<path d="M13.9278 8.27097L14.5858 8.92892L15.4993 8.01541C14.9592 8.04877 14.4337 8.1357 13.9278 8.27097Z" fill="black"/>
<path d="M16 7.51471L14.5847 6.09938C13.8059 6.20972 13.0559 6.40978 12.3456 6.68876L13.9278 8.27097C14.4337 8.1357 14.9592 8.04877 15.4993 8.01541L16 7.51471Z" fill="black"/>
<path d="M16 7.51471L15.4993 8.01541C15.6649 8.00519 15.8318 8 16 8C16.1682 8 16.3351 8.00519 16.5007 8.01541L16 7.51471Z" fill="black"/>
<path d="M19.6544 6.68876C18.9441 6.40978 18.1941 6.20972 17.4153 6.09938L16 7.51471L16.5007 8.01541C17.0408 8.04877 17.5663 8.1357 18.0722 8.27097L19.6544 6.68876Z" fill="black"/>
<path d="M17.4142 8.92893L18.0722 8.27097C17.5663 8.1357 17.0408 8.04877 16.5007 8.01541L17.4142 8.92893Z" fill="black"/>
<path d="M19.6544 25.3112C19.7707 25.2656 19.8859 25.2178 20 25.1679L20 22.9297C19.402 23.2757 18.7551 23.5464 18.0722 23.729L19.6544 25.3112Z" fill="black"/>
<path d="M20 25.1679C20.714 24.8559 21.3845 24.463 22 24.0007L22 22L21.6569 21.6569C21.164 22.1497 20.6073 22.5785 20 22.9297L20 25.1679Z" fill="black"/>
<path d="M21.6569 21.6569L20.2426 20.2426L20 20.4853L20 22.9297C20.6073 22.5785 21.164 22.1497 21.6569 21.6569Z" fill="black"/>
<path d="M21.6569 21.6569L22 22L22 21.2916C21.8894 21.4169 21.775 21.5387 21.6569 21.6569Z" fill="black"/>
<path d="M12 25.1679C12.1141 25.2178 12.2293 25.2656 12.3456 25.3112L13.9278 23.729C13.2449 23.5464 12.598 23.2757 12 22.9297L12 25.1679Z" fill="black"/>
<path d="M10 24.0007C10.6155 24.463 11.286 24.856 12 25.1679L12 22.9297C11.3927 22.5785 10.8359 22.1497 10.3431 21.6569L10 22L10 24.0007Z" fill="black"/>
<path d="M11.7574 20.2426L10.3431 21.6569C10.8359 22.1497 11.3927 22.5785 12 22.9297L12 20.4853L11.7574 20.2426Z" fill="black"/>
<path d="M17.4142 23.0711L16.334 21.9909C16.2234 21.9969 16.1121 22 16 22C15.8879 22 15.7766 21.9969 15.666 21.9909L14.5858 23.0711L15.4993 23.9846C15.6649 23.9948 15.8318 24 16 24C16.1682 24 16.3351 23.9948 16.5007 23.9846L17.4142 23.0711Z" fill="black"/>
<path d="M18.0722 23.729L17.4142 23.0711L16.5007 23.9846C17.0408 23.9512 17.5663 23.8643 18.0722 23.729Z" fill="black"/>
<path d="M16 24.4853L17.4153 25.9006C18.1941 25.7903 18.9441 25.5902 19.6544 25.3112L18.0722 23.729C17.5663 23.8643 17.0408 23.9512 16.5007 23.9846L16 24.4853Z" fill="black"/>
<path d="M16 24.4853L16.5007 23.9846C16.3351 23.9948 16.1682 24 16 24C15.8318 24 15.6649 23.9948 15.4993 23.9846L16 24.4853Z" fill="black"/>
<path d="M12.3456 25.3112C13.0559 25.5902 13.8059 25.7903 14.5847 25.9006L16 24.4853L15.4993 23.9846C14.9592 23.9512 14.4337 23.8643 13.9278 23.729L12.3456 25.3112Z" fill="black"/>
<path d="M14.5858 23.0711L13.9278 23.729C14.4337 23.8643 14.9592 23.9512 15.4993 23.9846L14.5858 23.0711Z" fill="black"/>
<path d="M25.3112 12.3456C25.2656 12.2293 25.2178 12.1141 25.1679 12L22.9297 12C23.2757 12.598 23.5464 13.2449 23.729 13.9278L25.3112 12.3456Z" fill="black"/>
<path d="M25.1679 12C24.8559 11.286 24.463 10.6155 24.0007 10L22 10L21.6569 10.3431C22.1497 10.8359 22.5785 11.3927 22.9297 12L25.1679 12Z" fill="black"/>
<path d="M21.6569 10.3431L20.2426 11.7574L20.4853 12L22.9297 12C22.5785 11.3927 22.1497 10.8359 21.6569 10.3431Z" fill="black"/>
<path d="M21.6569 10.3431L22 10L21.2916 10C21.4169 10.1106 21.5387 10.225 21.6569 10.3431Z" fill="black"/>
<path d="M25.1679 20C25.2178 19.8859 25.2656 19.7707 25.3112 19.6544L23.729 18.0722C23.5464 18.7551 23.2757 19.402 22.9297 20L25.1679 20Z" fill="black"/>
<path d="M24.0007 22C24.463 21.3845 24.856 20.714 25.1679 20L22.9297 20C22.5785 20.6073 22.1497 21.1641 21.6569 21.6569L22 22L24.0007 22Z" fill="black"/>
<path d="M20.2426 20.2426L21.6569 21.6569C22.1497 21.1641 22.5785 20.6073 22.9297 20L20.4853 20L20.2426 20.2426Z" fill="black"/>
<path d="M23.0711 14.5858L21.9909 15.666C21.9969 15.7766 22 15.8879 22 16C22 16.1121 21.9969 16.2234 21.9909 16.334L23.0711 17.4142L23.9846 16.5007C23.9948 16.3351 24 16.1682 24 16C24 15.8318 23.9948 15.6649 23.9846 15.4993L23.0711 14.5858Z" fill="black"/>
<path d="M23.729 13.9278L23.0711 14.5858L23.9846 15.4993C23.9512 14.9592 23.8643 14.4337 23.729 13.9278Z" fill="black"/>
<path d="M24.4853 16L25.9006 14.5847C25.7903 13.8059 25.5902 13.0559 25.3112 12.3456L23.729 13.9278C23.8643 14.4337 23.9512 14.9592 23.9846 15.4993L24.4853 16Z" fill="black"/>
<path d="M24.4853 16L23.9846 15.4993C23.9948 15.6649 24 15.8318 24 16C24 16.1682 23.9948 16.3351 23.9846 16.5007L24.4853 16Z" fill="black"/>
<path d="M25.3112 19.6544C25.5902 18.9441 25.7903 18.1941 25.9006 17.4153L24.4853 16L23.9846 16.5007C23.9512 17.0408 23.8643 17.5663 23.729 18.0722L25.3112 19.6544Z" fill="black"/>
<path d="M23.0711 17.4142L23.729 18.0722C23.8643 17.5663 23.9512 17.0408 23.9846 16.5007L23.0711 17.4142Z" fill="black"/>
</svg>
