<svg width="32" height="32" viewBox="0 0 32 32" fill="none" xmlns="http://www.w3.org/2000/svg">
<path d="M16 18C17.1046 18 18 17.1046 18 16C18 14.8954 17.1046 14 16 14C14.8954 14 14 14.8954 14 16C14 17.1046 14.8954 18 16 18Z" fill="black"/>
<path fill-rule="evenodd" clip-rule="evenodd" d="M21.2205 13.0404L22.3306 11.1083C22.1252 10.8428 21.9035 10.5907 21.667 10.3533L21.6467 10.333C21.4093 10.0965 21.1572 9.87476 20.8918 9.66937L18.9596 10.7795C18.5355 10.5386 18.0791 10.3478 17.5986 10.2153L17.0173 8.06407C16.6842 8.02179 16.3446 8 16 8C15.6554 8 15.3158 8.02179 14.9827 8.06407L14.4014 10.2153C13.9209 10.3478 13.4645 10.5386 13.0404 10.7795L11.1083 9.66937C10.8428 9.87478 10.5906 10.0965 10.3532 10.3331L10.3331 10.3532C10.0965 10.5906 9.87478 10.8428 9.66937 11.1082L10.7795 13.0404C10.5386 13.4645 10.3478 13.9209 10.2153 14.4014L8.06407 14.9827C8.02179 15.3158 8 15.6554 8 16C8 16.3446 8.02179 16.6842 8.06407 17.0173L10.2153 17.5986C10.3478 18.0791 10.5386 18.5355 10.7795 18.9596L9.66936 20.8917C10.086 21.4302 10.5698 21.914 11.1083 22.3306L13.0404 21.2205C13.4645 21.4614 13.9209 21.6522 14.4014 21.7847L14.9827 23.9359C15.3158 23.9782 15.6554 24 16 24C16.3446 24 16.6842 23.9782 17.0173 23.9359L17.5986 21.7847C18.0791 21.6522 18.5355 21.4614 18.9596 21.2205L20.8917 22.3306C21.4302 21.914 21.914 21.4302 22.3306 20.8917L21.2205 18.9596C21.4614 18.5355 21.6522 18.0791 21.7847 17.5986L23.9359 17.0173C23.9782 16.6842 24 16.3446 24 16C24 15.6554 23.9782 15.3158 23.9359 14.9827L21.7847 14.4014C21.6522 13.9209 21.4614 13.4645 21.2205 13.0404ZM19 16C19 17.6569 17.6569 19 16 19C14.3431 19 13 17.6569 13 16C13 14.3431 14.3431 13 16 13C17.6569 13 19 14.3431 19 16Z" fill="black"/>
</svg>
