<svg width="32" height="32" viewBox="0 0 32 32" fill="none" xmlns="http://www.w3.org/2000/svg">
<path d="M6 10.0002H8V23.0002H6V10.0002Z" fill="black"/>
<path d="M26 21.0002V23.0002L6 23.0002V21.0002H26Z" fill="black"/>
<path fill-rule="evenodd" clip-rule="evenodd" d="M26.4472 9.10579C26.9412 9.35278 27.1414 9.95345 26.8944 10.4474L22.8944 18.4474C22.725 18.7862 22.3788 19.0002 22 19.0002C21.6212 19.0002 21.275 18.7862 21.1056 18.4474L18 12.2363L15.8944 16.4474C15.725 16.7862 15.3788 17.0002 15 17.0002C14.6212 17.0002 14.275 16.7862 14.1056 16.4474L13.5 15.2363L11.8944 18.4474C11.6474 18.9414 11.0468 19.1416 10.5528 18.8946C10.0588 18.6477 9.85858 18.047 10.1056 17.553L12.6056 12.553C12.775 12.2142 13.1212 12.0002 13.5 12.0002C13.8788 12.0002 14.225 12.2142 14.3944 12.553L15 13.7642L17.1056 9.55301C17.275 9.21422 17.6212 9.00022 18 9.00022C18.3788 9.00022 18.725 9.21422 18.8944 9.55301L22 15.7642L25.1056 9.55301C25.3526 9.05903 25.9532 8.8588 26.4472 9.10579Z" fill="black"/>
</svg>
