<svg width="32" height="32" viewBox="0 0 32 32" fill="none" xmlns="http://www.w3.org/2000/svg">
<path d="M15.7629 18C17.3629 18 19.7815 16.0769 19.7815 12.6154C19.7815 9.92308 17.972 8 15.7629 8C13.5537 8 11.7815 9.92308 11.7815 12.6154C11.7815 16.0769 14.1629 18 15.7629 18Z" fill="black"/>
<path d="M19.1527 17.2382C19.2592 17.1155 19.3622 16.9868 19.4612 16.8524C21.412 17.893 22.8034 19.8863 23.535 22.8325C23.6849 23.4359 23.2113 24 22.5895 24H8.97339C8.35159 24 7.87804 23.4359 8.02791 22.8325C8.75815 19.8919 10.1457 17.9006 12.0905 16.8583C12.1861 16.9891 12.2854 17.1144 12.3881 17.2341C13.3028 18.3008 14.5595 19 15.7629 19C16.9634 19 18.2286 18.3035 19.1527 17.2382Z" fill="black"/>
</svg>
