<svg width="28" height="7" viewBox="0 0 28 7" fill="none" xmlns="http://www.w3.org/2000/svg">
<path d="M6.29117 4.39844L6.92984 0.660156H8.82242L7.32828 7H5.65836L4.60953 3.23828L3.55484 7H1.88492L0.390781 0.660156H2.28336L2.91031 4.48633L3.91813 0.660156H5.29508L6.29117 4.39844Z" fill="white"/>
<path d="M15.6699 4.39844L16.3086 0.660156H18.2012L16.707 7H15.0371L13.9883 3.23828L12.9336 7H11.2637L9.76953 0.660156H11.6621L12.2891 4.48633L13.2969 0.660156H14.6738L15.6699 4.39844Z" fill="white"/>
<path d="M25.0487 4.39844L25.6873 0.660156H27.5799L26.0858 7H24.4159L23.367 3.23828L22.3123 7H20.6424L19.1483 0.660156H21.0409L21.6678 4.48633L22.6756 0.660156H24.0526L25.0487 4.39844Z" fill="white"/>
</svg>
